# xmcd CD database file
#
# Track frame offsets:
#	182
#	31917
#	62760
#	93395
#	106072
#	127770
#	158940
#	182585
#
# Disc length: 2811 seconds
#
# Revision: 0
# Processed by: cddbd v1.4PL0 Copyright (c) Steve Scherf et al.
# Submitted via: CDex 1.50
#
DISCID=590af908
DTITLE=Mal Waldron - Breaking New Ground
DYEAR=1987
DGENRE=Jazz
TTITLE0=Dans La Cuisine D'Alibi
TTITLE1=Suicide is Painless
TTITLE2=After the Love Has Gone
TTITLE3=Beat It
TTITLE4=You Are The Sunshine Of My Life
TTITLE5=Gymnopedie No.2
TTITLE6=Everything Must Change
TTITLE7=Thy Freedom Come
EXTD=YEAR: 1987
EXTT0=
EXTT1=
EXTT2=
EXTT3=
EXTT4=
EXTT5=
EXTT6=
EXTT7=
PLAYORDER=
